<svg xmlns="http://www.w3.org/2000/svg" viewBox="0 0 100 100">
  <defs>
    <pattern id="object-pattern" x="0" y="0" width="20" height="20" patternUnits="userSpaceOnUse">
      <path d="M3,6.5c-1.2,0-2.2-1-2.2-2.2s1-2.2,2.2-2.2s2.2,1,2.2,2.2S4.2,6.5,3,6.5z M3,3.8c-0.7,0-1.2,0.6-1.2,1.2s0.6,1.2,1.2,1.2s1.2-0.6,1.2-1.2S3.7,3.8,3,3.8z" fill="#f44336" />
      <path d="M16.4,10.5c0-3.5-2.5-5.5-5.4-5.5S5.6,7,5.6,10.5c0,1.5,0.6,2.9,1.6,3.9c1,1,2.4,1.6,3.9,1.6s2.9-0.6,3.9-1.6C15.8,13.4,16.4,11.9,16.4,10.5z M6.3,10.5c0-2.1,1.3-3.5,2.9-3.5s2.9,1.3,2.9,3.5s-1.3,3.5-2.9,3.5S6.3,12.6,6.3,10.5z" fill="#9c27b0" />
      <rect x="11.5" y="4.5" width="3" height="3" fill="#2196f3" />
      <circle cx="17.5" cy="7.5" r="2" fill="#4caf50" />
      <circle cx="4.5" cy="14.5" r="2" fill="#ffc107" />
      <rect x="11" y="12" width="3" height="3" fill="#ff5722" />
      <circle cx="17" cy="15" r="2" fill="#3f51b5" />
      <rect x="3" y="17" width="3" height="3" fill="#009688" />
      <path d="M10.5,18c-1.2,0-2.2-1-2.2-2.2s1-2.2,2.2-2.2s2.2,1,2.2,2.2S11.7,18,10.5,18z M10.5,15.3c-0.7,0-1.2,0.6-1.2,1.2s0.6,1.2,1.2,1.2s1.2-0.6,1.2-1.2S11.2,15.3,10.5,15.3z" fill="#795548" />
</pattern>
</defs>
<rect x="0" y="0" width="100%" height="100%" fill="url(#object-pattern)" />
</svg>
